<?xml version="1.0" encoding="utf-8"?>
<!-- Generator: Adobe Illustrator 19.0.0, SVG Export Plug-In . SVG Version: 6.00 Build 0)  -->
<svg version="1.1" id="Layer_1" xmlns="http://www.w3.org/2000/svg" xmlns:xlink="http://www.w3.org/1999/xlink" x="0px" y="0px"
	 viewBox="0 0 1600 600" style="enable-background:new 0 0 1600 600;" xml:space="preserve">
<style type="text/css">
	.st0{fill:#6253A3;}
	.st1{fill:#FFFFFF;}
</style>
<g id="XMLID_3_">
</g>
<g id="XMLID_4_">
	<g id="XMLID_40_">
		<g id="XMLID_41_">
			<rect id="XMLID_42_" x="261.6" y="74.1" class="st0" width="451.7" height="389.7"/>
		</g>
	</g>
</g>
<g id="XMLID_1_">
	<g id="XMLID_165_">
		<g id="XMLID_166_">
			<path id="XMLID_172_" class="st0" d="M184,281.4v-1.3c31.9-10.8,57.1-37.4,57.1-77.4c0-23.4-8.6-44.1-23.9-57.6
				c-18.9-17.1-45.9-24.7-87.7-24.7c-27,0-55.3,2.3-75.1,6.3v299.2h39.1V294.5h36.9c35.5,1.3,51.8,17.1,60.8,58.9
				c8.5,37.8,15.3,63.9,20.2,72.4h40.5c-6.3-11.7-13.5-40.9-23.4-83.2C221.3,311.1,207.4,289.5,184,281.4z M133.6,264.8h-40V154.1
				c6.3-1.8,19.8-3.6,38.7-3.6c41.4,0.4,69.7,17.5,69.7,56.7C202,241.8,175.4,264.8,133.6,264.8z"/>
			<polygon id="XMLID_171_" class="st1" points="335.6,283.7 453.5,283.7 453.5,251.3 335.6,251.3 335.6,155.4 460.3,155.4 
				460.3,122.6 296.5,122.6 296.5,425.9 467,425.9 467,393 335.6,393 			"/>
			<path id="XMLID_170_" class="st1" d="M608.8,254c-41.9-16.2-60.3-30.1-60.3-58.5c0-20.7,15.7-45.4,57.1-45.4
				c27.5,0,47.7,9,57.6,14.4l10.8-31.9c-13.5-7.6-36-14.9-67-14.9c-58.9,0-98.1,35.1-98.1,82.3c0,42.7,30.6,68.4,80.1,85.9
				c41,15.8,57.2,32,57.2,60.3c0,30.6-23.4,51.8-63.4,51.8c-27,0-52.6-9-70.2-19.8l-9.9,32.8c16.2,10.8,48.1,19.3,77.4,19.3
				c71.5,0,106.2-40.5,106.2-87.3C686.2,298.5,660.1,273.8,608.8,254z"/>
			<path id="XMLID_169_" class="st0" d="M923.3,302.1c0,67-28.8,96.7-73.8,96.7c-40.5,0-70.6-28.8-70.6-96.7V122.6h-39.6v178.6
				c0,94,46.8,129.6,108.9,129.6c65.7,0,114.7-38.3,114.7-131.4V122.6h-39.6V302.1z"/>
			<path id="XMLID_168_" class="st0" d="M1263.5,122.6l-54,146.7c-13.5,38.3-24.3,71.6-32,102.1h-1.3c-7.7-31.5-18-64.8-30.6-102.1
				l-51.8-146.7h-49.9l-21.2,303.3h37.3l8.1-130c2.7-45.4,4.9-96.3,5.8-134.1h0.9c8.5,36,20.7,75.1,35.1,117.9l49,144.4h29.7
				l53.5-147.1c15.3-41.8,27.9-79.6,38.3-115.2h1.3c-0.5,37.8,2.3,88.6,4.5,130.9l7.7,133.2h38.2l-18.9-303.3H1263.5z"/>
			<polygon id="XMLID_167_" class="st0" points="1431.8,393 1431.8,283.7 1549.7,283.7 1549.7,251.3 1431.8,251.3 1431.8,155.4 
				1556.5,155.4 1556.5,122.6 1392.7,122.6 1392.7,425.9 1563.2,425.9 1563.2,393 			"/>
		</g>
	</g>
</g>
</svg>
